<svg xmlns="http://www.w3.org/2000/svg" viewBox="0 0 1200 420" width="1200" height="420">
  <defs>
    <linearGradient id="surface" x1="0%" y1="0%" x2="100%" y2="100%">
      <stop offset="0%" stop-color="#111113"/>
      <stop offset="58%" stop-color="#18181B"/>
      <stop offset="100%" stop-color="#27272A"/>
    </linearGradient>
    <linearGradient id="edge" x1="0%" y1="0%" x2="100%" y2="0%">
      <stop offset="0%" stop-color="#B08D57" stop-opacity="0"/>
      <stop offset="48%" stop-color="#B08D57" stop-opacity="0.72"/>
      <stop offset="100%" stop-color="#B08D57" stop-opacity="0"/>
    </linearGradient>
    <radialGradient id="quiet-field" cx="74%" cy="42%" r="55%">
      <stop offset="0%" stop-color="#B08D57" stop-opacity="0.18"/>
      <stop offset="45%" stop-color="#B08D57" stop-opacity="0.05"/>
      <stop offset="100%" stop-color="#B08D57" stop-opacity="0"/>
    </radialGradient>
    <style>
      .display { font-family: "Geist", "Satoshi", "Avenir Next", sans-serif; font-weight: 700; letter-spacing: -1.8px; }
      .label { font-family: "Geist Mono", "SFMono-Regular", Consolas, monospace; font-weight: 500; letter-spacing: 1.8px; }
      .body { font-family: "Geist", "Satoshi", "Avenir Next", sans-serif; font-weight: 400; }
    </style>
  </defs>

  <rect width="1200" height="420" rx="34" fill="url(#surface)"/>
  <rect width="1200" height="420" rx="34" fill="url(#quiet-field)"/>
  <rect x="24" y="24" width="1152" height="372" rx="26" fill="none" stroke="#F4F0E8" stroke-opacity="0.08"/>
  <rect x="56" y="352" width="520" height="2" rx="1" fill="url(#edge)"/>

  <g opacity="0.14">
    <path d="M720 52V368" stroke="#F4F0E8" stroke-width="1"/>
    <path d="M800 52V368" stroke="#F4F0E8" stroke-width="1"/>
    <path d="M880 52V368" stroke="#F4F0E8" stroke-width="1"/>
    <path d="M960 52V368" stroke="#F4F0E8" stroke-width="1"/>
    <path d="M1040 52V368" stroke="#F4F0E8" stroke-width="1"/>
    <path d="M656 116H1112" stroke="#F4F0E8" stroke-width="1"/>
    <path d="M656 196H1112" stroke="#F4F0E8" stroke-width="1"/>
    <path d="M656 276H1112" stroke="#F4F0E8" stroke-width="1"/>
  </g>

  <g transform="translate(64 78)">
    <text class="label" x="0" y="0" fill="#B08D57" font-size="15">THOUGHTSEED LABS / PUBLIC ATLAS</text>
    <text class="display" x="0" y="76" fill="#F4F0E8" font-size="58">Mage Narayan</text>
    <text class="body" x="2" y="126" fill="#D7D0C3" font-size="22">Witness Alchemist building operator systems, ritual interfaces,</text>
    <text class="body" x="2" y="158" fill="#D7D0C3" font-size="22">and venture tooling for embodied execution.</text>
    <g transform="translate(0 220)">
      <rect x="0" y="0" width="158" height="42" rx="21" fill="#F4F0E8" fill-opacity="0.06" stroke="#F4F0E8" stroke-opacity="0.11"/>
      <text class="label" x="22" y="27" fill="#F4F0E8" font-size="13">170 PUBLIC REPOS</text>
      <rect x="176" y="0" width="150" height="42" rx="21" fill="#F4F0E8" fill-opacity="0.06" stroke="#F4F0E8" stroke-opacity="0.11"/>
      <text class="label" x="198" y="27" fill="#F4F0E8" font-size="13">TYPE SYSTEMS</text>
      <rect x="344" y="0" width="126" height="42" rx="21" fill="#F4F0E8" fill-opacity="0.06" stroke="#F4F0E8" stroke-opacity="0.11"/>
      <text class="label" x="366" y="27" fill="#F4F0E8" font-size="13">TASTE OPS</text>
    </g>
  </g>

  <g transform="translate(704 82)">
    <path d="M0 184C82 74 186 258 308 86" fill="none" stroke="#B08D57" stroke-width="1.5" stroke-opacity="0.72"/>
    <path d="M24 112C108 236 214 42 360 184" fill="none" stroke="#F4F0E8" stroke-width="1" stroke-opacity="0.18"/>
    <path d="M82 40C162 126 226 126 326 40" fill="none" stroke="#F4F0E8" stroke-width="1" stroke-opacity="0.12"/>

    <circle cx="0" cy="184" r="8" fill="#B08D57"/>
    <circle cx="82" cy="74" r="5" fill="#F4F0E8" fill-opacity="0.76"/>
    <circle cx="186" cy="258" r="6" fill="#F4F0E8" fill-opacity="0.62"/>
    <circle cx="308" cy="86" r="8" fill="#B08D57"/>
    <circle cx="24" cy="112" r="4" fill="#F4F0E8" fill-opacity="0.54"/>
    <circle cx="214" cy="42" r="4" fill="#F4F0E8" fill-opacity="0.54"/>
    <circle cx="360" cy="184" r="5" fill="#F4F0E8" fill-opacity="0.66"/>

    <g transform="translate(230 212)">
      <rect x="0" y="0" width="192" height="72" rx="22" fill="#111113" fill-opacity="0.72" stroke="#F4F0E8" stroke-opacity="0.12"/>
      <text class="label" x="20" y="30" fill="#B08D57" font-size="12">BUILD FIELD</text>
      <text class="body" x="20" y="52" fill="#F4F0E8" font-size="16">agents / brands / space</text>
    </g>
  </g>
</svg>
